# xmcd
#
# Track frame offsets:
#	150
#	16988
#	39343
#	59161
#	75082
#	91140
#	105985
#	125207
#	146763
#	164604
#	186183
#	206982
#	224492
#	243571
#	266672
#	291872
#	311396
#	330046
#
# Disc length: 4663 seconds
#
# Revision: 1
# Processed by: cddbd v1.5.2PL0 Copyright (c) Steve Scherf et al.
# Submitted via: audiograbber 1.83.01
#
DISCID=06123512
DTITLE=Santana - Ultimate Santana
DYEAR=1900
DGENRE=Compilation
TTITLE0=Santana - Into The Night
TTITLE1=Santana - Smooth
TTITLE2=Santana - Maria Maria
TTITLE3=Santana - This Boy's Fire
TTITLE4=Santana - She's Not There
TTITLE5=Santana - Black Magic Woman
TTITLE6=Santana - The Game Of Love
TTITLE7=Santana - Samba Pa Ti
TTITLE8=Santana - Evil Ways
TTITLE9=Santana - Put Your Lights On
TTITLE10=Santana - Corazon Espinado
TTITLE11=Santana - Why Don't You and I
TTITLE12=Santana - Just Feel Better
TTITLE13=Santana - Europa (Earth's Cry Heaven's Smile)
TTITLE14=Santana - No One To Depend On
TTITLE15=Santana - Oye Como Va
TTITLE16=Santana - Interplanetary Party
TTITLE17=Santana - The Game Of Love
EXTD=
EXTT0=
EXTT1=
EXTT2=
EXTT3=
EXTT4=
EXTT5=
EXTT6=
EXTT7=
EXTT8=
EXTT9=
EXTT10=
EXTT11=
EXTT12=
EXTT13=
EXTT14=
EXTT15=
EXTT16=
EXTT17=
PLAYORDER=
